<svg xmlns="http://www.w3.org/2000/svg" viewBox="0 0 96 96" width="96" height="96">
  <!-- PLACEHOLDER: siege_engine (alpha/siege) motifs=['barrel', 'ring']
       Generated by tools/asset-gen/scripts/icon_gen.py --placeholders. Representative, not final.
       Role comes from the faction JSON's category; motifs from the object's own SUBJECT clause.
       Drop a painted siege_engine.png beside this file to replace it (the loader prefers .png).
       Faction-scoped path: BuildingType ids are shared across factions. -->
  <defs>
    <radialGradient id="pSEalpha" cx="50%" cy="32%" r="78%">
      <stop offset="0%" stop-color="#3d5a80"/><stop offset="70%" stop-color="#1b2a3d"/><stop offset="100%" stop-color="#080a0d"/>
    </radialGradient>
    <linearGradient id="rSEalpha" x1="0" y1="0" x2="1" y2="1">
      <stop offset="0%" stop-color="#a8d0f0" stop-opacity="0.95"/><stop offset="55%" stop-color="#a8d0f0" stop-opacity="0"/>
    </linearGradient>
  </defs>
  <rect width="96" height="96" rx="9" fill="url(#pSEalpha)"/>
  <path d="M16 78 L16 52 L28 52 L34 44 L62 44 L68 52 L80 52 L80 78 Z" fill="#1b2a3d" stroke="#05070a" stroke-width="1.5"/>
  <path d="M36 34 L60 34 L64 44 L32 44 Z" fill="#3d5a80"/>
  <path d="M16 78 L16 52 L28 52 L34 44 L62 44 L68 52 L80 52 L80 78 Z" fill="url(#rSEalpha)" opacity="0.55"/>
  <path d="M60 40 L84 46 L84 54 L60 50 Z" fill="none" stroke="#c8a24a" stroke-width="2.4" stroke-linecap="round" opacity="0.95"/><path d="M48 52 a13 13 0 1 1 -0.1 0 z M48 60 a5 5 0 1 0 0.1 0 z" fill="none" stroke="#c8a24a" stroke-width="2.4" stroke-linecap="round" opacity="0.95"/>
  <rect x="2.5" y="2.5" width="91" height="91" rx="7.5" fill="none" stroke="#c8a24a" stroke-width="1.8" opacity="0.8"/>
  <text x="48" y="91" font-family="sans-serif" font-size="10" font-weight="700"
        text-anchor="middle" fill="#c8a24a" opacity="0.85">SE</text>
</svg>
