<svg xmlns="http://www.w3.org/2000/svg" viewBox="0 0 96 96" width="96" height="96">
  <!-- PLACEHOLDER: wyvern (beta/air) motifs=['wings']
       Generated by tools/asset-gen/scripts/icon_gen.py --placeholders. Representative, not final.
       Role comes from the faction JSON's category; motifs from the object's own SUBJECT clause.
       Drop a painted wyvern.png beside this file to replace it (the loader prefers .png).
       Faction-scoped path: BuildingType ids are shared across factions. -->
  <defs>
    <radialGradient id="pWbeta" cx="50%" cy="32%" r="78%">
      <stop offset="0%" stop-color="#5c1f28"/><stop offset="70%" stop-color="#2a0f14"/><stop offset="100%" stop-color="#080a0d"/>
    </radialGradient>
    <linearGradient id="rWbeta" x1="0" y1="0" x2="1" y2="1">
      <stop offset="0%" stop-color="#e0707c" stop-opacity="0.95"/><stop offset="55%" stop-color="#e0707c" stop-opacity="0"/>
    </linearGradient>
  </defs>
  <rect width="96" height="96" rx="9" fill="url(#pWbeta)"/>
  <path d="M30 74 Q30 50 40 44 L56 44 Q66 50 66 74 Z" fill="#2a0f14" stroke="#05070a" stroke-width="1.5"/>
  <path d="M48 32 a9 9 0 1 1 -0.1 0 z" fill="#5c1f28"/>
  <path d="M30 74 Q30 50 40 44 L56 44 Q66 50 66 74 Z" fill="url(#rWbeta)" opacity="0.55"/>
  <path d="M18 44 Q34 34 44 44 M78 44 Q62 34 52 44" fill="none" stroke="#b08d57" stroke-width="2.4" stroke-linecap="round" opacity="0.95"/>
  <rect x="2.5" y="2.5" width="91" height="91" rx="7.5" fill="none" stroke="#b08d57" stroke-width="1.8" opacity="0.8"/>
  <text x="48" y="91" font-family="sans-serif" font-size="10" font-weight="700"
        text-anchor="middle" fill="#b08d57" opacity="0.85">W</text>
</svg>
